<?xml version="1.0" encoding="UTF-8" standalone="no"?>
<!-- Created with Inkscape (http://www.inkscape.org/) -->

<svg
   xmlns:dc="http://purl.org/dc/elements/1.1/"
   xmlns:cc="http://creativecommons.org/ns#"
   xmlns:rdf="http://www.w3.org/1999/02/22-rdf-syntax-ns#"
   xmlns:svg="http://www.w3.org/2000/svg"
   xmlns="http://www.w3.org/2000/svg"
   xmlns:sodipodi="http://sodipodi.sourceforge.net/DTD/sodipodi-0.dtd"
   xmlns:inkscape="http://www.inkscape.org/namespaces/inkscape"
   version="1.1"
   id="svg1466"
   xml:space="preserve"
   width="800"
   height="800"
   viewBox="0 0 800 800"
   sodipodi:docname="yellow-bkg-svg.svg"
   inkscape:version="0.92.4 (5da689c313, 2019-01-14)"><metadata
     id="metadata1472"><rdf:RDF><cc:Work
         rdf:about=""><dc:format>image/svg+xml</dc:format><dc:type
           rdf:resource="http://purl.org/dc/dcmitype/StillImage" /><dc:title></dc:title></cc:Work></rdf:RDF></metadata><defs
     id="defs1470"><clipPath
       clipPathUnits="userSpaceOnUse"
       id="clipPath1482"><path
         d="M 0,600 H 600 V 0 H 0 Z"
         id="path1480"
         inkscape:connector-curvature="0" /></clipPath><clipPath
       clipPathUnits="userSpaceOnUse"
       id="clipPath1490"><path
         d="M 0.535156,600 H 600.299 V 329.684 H 0.535156 Z"
         id="path1488"
         inkscape:connector-curvature="0" /></clipPath><clipPath
       clipPathUnits="userSpaceOnUse"
       id="clipPath1516"><path
         d="M 0.535156,242.917 H 600.299 V -0.0664062 H 0.535156 Z"
         id="path1514"
         inkscape:connector-curvature="0" /></clipPath></defs><sodipodi:namedview
     pagecolor="#ffffff"
     bordercolor="#666666"
     borderopacity="1"
     objecttolerance="10"
     gridtolerance="10"
     guidetolerance="10"
     inkscape:pageopacity="0"
     inkscape:pageshadow="2"
     inkscape:window-width="1920"
     inkscape:window-height="1018"
     id="namedview1468"
     showgrid="false"
     inkscape:zoom="0.79509524"
     inkscape:cx="469.49153"
     inkscape:cy="415.25424"
     inkscape:window-x="-8"
     inkscape:window-y="-8"
     inkscape:window-maximized="1"
     inkscape:current-layer="g1474" /><g
     id="g1474"
     inkscape:groupmode="layer"
     inkscape:label="abstract-584-publicdomainvectors.org [Converted]"
     transform="matrix(1.3333333,0,0,-1.3333333,0,800)"><g
       id="g1476"><g
         id="g1478"
         clip-path="url(#clipPath1482)"><g
           id="g1484"><g
             id="g1486" /><g
             id="g1508"><g
               clip-path="url(#clipPath1490)"
               id="g1506"><path
                 d="m 0.535,329.684 c 37.644,9.22 74.858,18.459 109.683,27.085 54.206,13.415 108.181,26.491 161.782,37.293 79.579,16.042 155.378,26.733 221.904,28.103 50.117,1.018 88.568,-5.801 106.395,-15.058 v 23.228 C 557.47,437.436 489.602,439.049 413.321,433.52 316.395,426.479 215.253,410.473 106.462,390.842 71.895,384.618 36.65,378.022 0.535,371.191 Z"
                 style="fill:#ffffff;fill-opacity:1;fill-rule:nonzero;stroke:none"
                 id="path1492"
                 inkscape:connector-curvature="0" /><path
                 d="m 0.535,332.668 c 31.824,7.636 63.034,15.195 92.524,22.348 56.215,13.631 111.868,26.909 166.853,37.921 81.144,16.257 158.065,27.248 226.113,29.036 54.485,1.417 96.385,-5.832 114.274,-15.603 v 27.515 c -19.139,2.907 -42.342,4.899 -68.225,5.627 -36.172,1.014 -78.027,-0.282 -122.991,-3.619 C 308.546,428.419 204.125,411.866 91.873,391.878 61.976,386.568 31.572,381.009 0.535,375.277 Z"
                 style="fill:#fffdf7;fill-opacity:1;fill-rule:nonzero;stroke:none"
                 id="path1494"
                 inkscape:connector-curvature="0" /><path
                 d="m 0.535,341.755 c 12.835,2.896 25.437,5.753 37.743,8.553 62.911,14.318 124.13,28.262 183.863,39.978 86.537,16.99 167.705,29.037 241.249,32.156 64.774,2.735 116.211,-4.354 136.748,-14.628 0.053,-0.027 0.107,-0.053 0.161,-0.081 v 37.392 c -18.945,2.134 -40.684,3.519 -64.268,4.001 -40.542,0.824 -86.99,-0.856 -136.549,-4.642 C 287.09,435.882 171.534,417.629 47.58,396.61 32.035,393.978 16.36,391.298 0.535,388.578 Z"
                 style="fill:#fef7e1;fill-opacity:1;fill-rule:nonzero;stroke:none"
                 id="path1496"
                 inkscape:connector-curvature="0" /><path
                 d="m 0.535,358.231 c 53.032,10.843 104.242,21.255 154.066,30.609 98.294,18.476 189.697,32.737 275.651,38.24 73.572,4.696 136.479,0.877 170.047,-7.877 v 46.692 c -14.111,1.133 -29.231,1.936 -45.094,2.373 C 508.054,469.559 453.707,467.874 395.9,463.837 268.957,454.971 138.745,435.976 0.537,415.061 Z"
                 style="fill:#feedbd;fill-opacity:1;fill-rule:nonzero;stroke:none"
                 id="path1498"
                 inkscape:connector-curvature="0" /><path
                 d="m 0.535,386.463 c 17.612,3.062 35.034,6.073 52.293,9.022 122.099,20.899 235.892,38.946 346.556,47.472 48.942,3.768 94.796,5.442 134.814,4.64 24.389,-0.49 46.773,-1.958 66.101,-4.224 v 56.056 c -50.613,3.566 -111.286,3.796 -176.524,1.342 C 344.473,497.79 259.797,491.058 172.537,482.305 115.632,476.607 58.543,470.126 0.535,463.362 Z"
                 style="fill:#fde08d;fill-opacity:1;fill-rule:nonzero;stroke:none"
                 id="path1500"
                 inkscape:connector-curvature="0" /><path
                 d="m 0.535,437.803 c 59.224,8.036 117.369,15.769 175.563,22.622 78.173,9.191 154.475,16.588 227.067,20.766 63.734,3.656 123.386,4.714 174.115,2.374 7.877,-0.364 15.561,-0.818 23.019,-1.358 v 69.691 c -24.182,2.43 -50.166,4.363 -77.47,5.76 -87.847,4.473 -189.655,3.945 -298.362,0.678 C 152.039,556.163 77.497,552.81 0.535,549.12 Z"
                 style="fill:#fcd053;fill-opacity:1;fill-rule:nonzero;stroke:none"
                 id="path1502"
                 inkscape:connector-curvature="0" /><path
                 d="m 0.535,600 v -66.829 c 70.151,4.295 138.473,8.264 205.324,11.256 106.215,4.736 206.495,6.866 294.665,4.08 35.585,-1.126 69.194,-3.119 99.775,-5.95 V 600 Z"
                 style="fill:#fbbf11;fill-opacity:1;fill-rule:nonzero;stroke:none"
                 id="path1504"
                 inkscape:connector-curvature="0" /></g></g></g><g
           id="g1510"><g
             id="g1512" /><g
             id="g1534"><g
               clip-path="url(#clipPath1516)"
               id="g1532"><path
                 d="M 600.299,242.917 C 562.655,234.629 525.441,226.324 490.616,218.57 436.41,206.513 382.435,194.758 328.834,185.049 249.255,170.628 173.456,161.019 106.929,159.787 56.812,158.872 18.362,165.002 0.535,173.323 v -20.881 c 42.829,-6.381 110.697,-7.833 186.977,-2.861 96.927,6.328 198.069,20.715 306.86,38.361 34.567,5.595 69.812,11.525 105.927,17.664 z"
                 style="fill:#ffffff;fill-opacity:1;fill-rule:nonzero;stroke:none"
                 id="path1518"
                 inkscape:connector-curvature="0" /><path
                 d="M 600.299,240.234 C 568.475,233.37 537.265,226.576 507.775,220.146 451.56,207.894 395.907,195.958 340.922,186.061 259.778,171.446 182.857,161.566 114.808,159.959 60.324,158.687 18.423,165.202 0.535,173.984 v -24.732 c 19.139,-2.613 42.342,-4.403 68.224,-5.058 36.173,-0.912 78.028,0.253 122.992,3.253 100.537,6.719 204.958,21.598 317.21,39.564 29.897,4.773 60.301,9.77 91.338,14.924 z"
                 style="fill:#fffdf7;fill-opacity:1;fill-rule:nonzero;stroke:none"
                 id="path1520"
                 inkscape:connector-curvature="0" /><path
                 d="m 600.299,232.066 c -12.835,-2.603 -25.437,-5.17 -37.743,-7.687 C 499.645,211.508 438.426,198.974 378.693,188.442 292.156,173.17 210.988,162.342 137.444,159.538 72.669,157.079 21.233,163.451 0.696,172.687 l -0.161,0.073 v -33.612 c 18.944,-1.918 40.684,-3.163 64.268,-3.596 40.541,-0.74 86.989,0.77 136.549,4.173 112.392,7.732 227.948,24.139 351.902,43.034 15.545,2.365 31.22,4.773 47.045,7.219 z"
                 style="fill:#fef7e1;fill-opacity:1;fill-rule:nonzero;stroke:none"
                 id="path1522"
                 inkscape:connector-curvature="0" /><path
                 d="M 600.299,217.256 C 547.267,207.51 496.057,198.15 446.233,189.742 347.939,173.134 256.536,160.316 170.582,155.368 97.009,151.147 34.103,154.581 0.535,162.45 v -41.971 c 14.11,-1.019 29.231,-1.741 45.094,-2.133 47.151,-1.16 101.497,0.354 159.305,3.982 126.943,7.97 257.155,25.045 395.363,43.845 z"
                 style="fill:#feedbd;fill-opacity:1;fill-rule:nonzero;stroke:none"
                 id="path1524"
                 inkscape:connector-curvature="0" /><path
                 d="M 600.299,191.879 C 582.687,189.127 565.265,186.42 548.006,183.77 425.907,164.983 312.114,148.762 201.45,141.098 c -48.942,-3.388 -94.796,-4.892 -134.814,-4.171 -24.389,0.439 -46.773,1.76 -66.101,3.797 V 90.335 c 50.613,-3.204 111.286,-3.411 176.524,-1.206 79.302,2.681 163.978,8.73 251.238,16.6 56.905,5.122 113.994,10.947 172.002,17.026 z"
                 style="fill:#fde08d;fill-opacity:1;fill-rule:nonzero;stroke:none"
                 id="path1526"
                 inkscape:connector-curvature="0" /><path
                 d="M 600.299,145.73 C 541.075,138.507 482.93,131.556 424.736,125.396 346.563,117.134 270.26,110.485 197.669,106.729 133.934,103.443 74.283,102.491 23.553,104.596 c -7.876,0.327 -15.56,0.735 -23.018,1.22 V 43.172 c 24.182,-2.185 50.166,-3.922 77.469,-5.178 87.848,-4.02 189.656,-3.546 298.363,-0.609 72.428,1.954 146.97,4.968 223.932,8.284 z"
                 style="fill:#fcd053;fill-opacity:1;fill-rule:nonzero;stroke:none"
                 id="path1528"
                 inkscape:connector-curvature="0" /><path
                 d="M 600.299,-0.066 V 60.005 C 530.148,56.145 461.826,52.577 394.975,49.887 288.76,45.631 188.48,43.716 100.309,46.22 64.725,47.231 31.116,49.024 0.535,51.569 V -0.066 Z"
                 style="fill:#fbbf11;fill-opacity:1;fill-rule:nonzero;stroke:none"
                 id="path1530"
                 inkscape:connector-curvature="0" /></g></g></g></g></g></g></svg>