<?xml version="1.0" encoding="UTF-8" standalone="no"?>
<!-- Created with Inkscape (http://www.inkscape.org/) -->
<svg
   xmlns:svg="http://www.w3.org/2000/svg"
   xmlns="http://www.w3.org/2000/svg"
   xmlns:xlink="http://www.w3.org/1999/xlink"
   version="1.0"
   width="360"
   height="73"
   id="svg2"
   xml:space="preserve"><defs
     id="defs5"><clipPath
       id="clipPath181"><path
         d="M 378.141,710.876 L 574.677,710.876 L 574.677,759.284 L 378.141,759.284 L 378.141,710.876 z"
         id="path183" /></clipPath><radialGradient
       cx="0"
       cy="0"
       r="1"
       fx="0"
       fy="0"
       id="radialGradient227"
       gradientUnits="userSpaceOnUse"
       gradientTransform="matrix(22.675461,0,0,-22.675461,397.03572,737.60506)"
       spreadMethod="pad"><stop
         id="stop229"
         style="stop-color:#fce1ce;stop-opacity:1"
         offset="0" /><stop
         id="stop231"
         style="stop-color:#e75113;stop-opacity:1"
         offset="0.73295599" /><stop
         id="stop233"
         style="stop-color:#e75113;stop-opacity:1"
         offset="1" /></radialGradient><radialGradient
       cx="0"
       cy="0"
       r="1"
       fx="0"
       fy="0"
       id="radialGradient3132"
       xlink:href="#radialGradient227"
       gradientUnits="userSpaceOnUse"
       gradientTransform="matrix(22.675461,0,0,-22.675461,397.03572,737.60506)"
       spreadMethod="pad" /></defs><g
     id="g2413"><rect
       width="360"
       height="73"
       x="0"
       y="0.20588236"
       id="rect2411"
       style="fill:#ffffff;fill-opacity:1" /><g
       transform="matrix(1.25,0,0,-1.25,-355.07556,938.18004)"
       id="g11"><g
         transform="matrix(1.5404767,0,0,1.5404767,-304.55257,-407.36579)"
         id="g3060"><g
           id="g177"><g
             clip-path="url(#clipPath181)"
             id="g179"><g
               transform="translate(448.9493,724.1116)"
               id="g185"><path
                 d="M 0,0 C -1.124,-0.502 -2.923,-0.845 -4.646,-0.845 C -9.772,-0.845 -12.767,2.411 -12.767,7.552 C -12.767,13.159 -9.346,16.128 -4.591,16.128 C -2.684,16.128 -1.132,15.71 -0.043,15.215 L 0.882,18.611 C 0.021,19.074 -1.961,19.643 -4.767,19.643 C -11.897,19.643 -17.253,15.008 -17.253,7.34 C -17.253,0.237 -12.747,-4.409 -5.347,-4.409 C -2.523,-4.409 -0.302,-3.859 0.705,-3.359 L 0,0 z"
                 id="path187"
                 style="fill:#000000;fill-opacity:1;fill-rule:nonzero;stroke:none" /></g><g
               transform="translate(455.9296,730.2801)"
               id="g189"><path
                 d="M 0,0 C 0.188,1.725 1.28,4.106 3.902,4.106 C 6.756,4.106 7.434,1.561 7.416,0 L 0,0 z M 11.276,-2.968 C 11.358,-2.608 11.427,-1.973 11.427,-1.18 C 11.427,2.512 9.644,7.014 4.168,7.014 C -1.253,7.014 -4.073,2.614 -4.073,-2.035 C -4.073,-7.198 -0.868,-10.578 4.602,-10.578 C 7.048,-10.578 9.046,-10.12 10.489,-9.51 L 9.859,-6.577 C 8.572,-7.049 7.168,-7.359 5.21,-7.359 C 2.482,-7.359 0.122,-6.022 0.006,-2.968 L 11.276,-2.968 z"
                 id="path191"
                 style="fill:#000000;fill-opacity:1;fill-rule:evenodd;stroke:none" /></g><path
               d="M 471.477,720.065 L 475.74,720.065 L 475.74,744.636 L 471.477,744.636 L 471.477,720.065 z"
               id="path193"
               style="fill:#000000;fill-opacity:1;fill-rule:nonzero;stroke:none" /><g
               transform="translate(489.9705,725.9888)"
               id="g195"><path
                 d="M 0,0 C 0,-0.294 -0.028,-0.63 -0.12,-0.924 C -0.529,-2.16 -1.754,-3.259 -3.454,-3.259 C -4.798,-3.259 -5.882,-2.48 -5.882,-0.831 C -5.882,1.734 -3.008,2.367 0,2.328 L 0,0 z M 4.145,4.201 C 4.145,7.898 2.602,11.306 -2.802,11.306 C -5.456,11.306 -7.638,10.584 -8.909,9.81 L -8.068,7.047 C -6.915,7.77 -5.187,8.303 -3.537,8.303 C -0.554,8.314 -0.115,6.472 -0.115,5.364 L -0.115,5.088 C -6.321,5.111 -10.107,2.96 -10.107,-1.292 C -10.107,-3.861 -8.215,-6.304 -4.796,-6.304 C -2.616,-6.304 -0.855,-5.376 0.171,-4.046 L 0.268,-4.046 L 0.561,-5.924 L 4.405,-5.924 C 4.219,-4.882 4.145,-3.397 4.145,-1.864 L 4.145,4.201 z"
                 id="path197"
                 style="fill:#000000;fill-opacity:1;fill-rule:evenodd;stroke:none" /></g><g
               transform="translate(499.1373,720.0652)"
               id="g199"><path
                 d="M 0,0 L 4.263,0 L 4.263,9.916 C 4.263,10.399 4.327,10.917 4.458,11.266 C 4.904,12.568 6.079,13.766 7.77,13.766 C 10.099,13.766 10.988,11.923 10.988,9.505 L 10.988,0 L 15.25,0 L 15.25,10.008 C 15.25,15.339 12.198,17.229 9.26,17.229 C 6.46,17.229 4.637,15.627 3.894,14.32 L 3.793,14.32 L 3.583,16.848 L -0.136,16.848 C -0.062,15.39 0,13.783 0,11.836 L 0,0 z"
                 id="path201"
                 style="fill:#000000;fill-opacity:1;fill-rule:nonzero;stroke:none" /></g><g
               transform="translate(522.2862,730.2801)"
               id="g203"><path
                 d="M 0,0 C 0.192,1.725 1.283,4.106 3.905,4.106 C 6.758,4.106 7.435,1.561 7.42,0 L 0,0 z M 11.28,-2.968 C 11.36,-2.608 11.432,-1.973 11.432,-1.18 C 11.432,2.512 9.648,7.014 4.169,7.014 C -1.25,7.014 -4.069,2.614 -4.069,-2.035 C -4.069,-7.198 -0.864,-10.578 4.603,-10.578 C 7.047,-10.578 9.049,-10.12 10.491,-9.51 L 9.861,-6.577 C 8.574,-7.049 7.172,-7.359 5.211,-7.359 C 2.486,-7.359 0.123,-6.022 0.009,-2.968 L 11.28,-2.968 z"
                 id="path205"
                 style="fill:#000000;fill-opacity:1;fill-rule:evenodd;stroke:none" /></g><g
               transform="translate(536.943,720.884)"
               id="g207"><path
                 d="M 0,0 C 1.243,-0.693 3.095,-1.182 5.132,-1.182 C 9.582,-1.182 11.977,1.036 11.977,4.107 C 11.963,6.591 10.547,8.155 7.481,9.239 C 5.355,10.014 4.539,10.528 4.539,11.599 C 4.539,12.634 5.386,13.383 6.898,13.383 C 8.391,13.383 9.754,12.815 10.464,12.413 L 11.307,15.403 C 10.319,15.947 8.697,16.411 6.838,16.411 C 2.904,16.411 0.446,14.101 0.446,11.137 C 0.431,9.142 1.805,7.348 5.1,6.219 C 7.172,5.482 7.871,4.903 7.871,3.761 C 7.871,2.657 7.028,1.871 5.158,1.871 C 3.633,1.871 1.798,2.517 0.858,3.1 L 0,0 z"
                 id="path209"
                 style="fill:#000000;fill-opacity:1;fill-rule:nonzero;stroke:none" /></g><g
               transform="translate(556.0236,730.2801)"
               id="g211"><path
                 d="M 0,0 C 0.191,1.725 1.28,4.106 3.902,4.106 C 6.758,4.106 7.435,1.561 7.419,0 L 0,0 z M 11.28,-2.968 C 11.36,-2.608 11.43,-1.973 11.43,-1.18 C 11.43,2.512 9.645,7.014 4.169,7.014 C -1.25,7.014 -4.071,2.614 -4.071,-2.035 C -4.071,-7.198 -0.866,-10.578 4.606,-10.578 C 7.049,-10.578 9.054,-10.12 10.494,-9.51 L 9.859,-6.577 C 8.574,-7.049 7.17,-7.359 5.21,-7.359 C 2.486,-7.359 0.123,-6.022 0.007,-2.968 L 11.28,-2.968 z"
                 id="path213"
                 style="fill:#000000;fill-opacity:1;fill-rule:evenodd;stroke:none" /></g></g></g><g
           id="g215"><g
             id="g217"><g
               id="g223"><g
                 id="g225"><path
                   d="M 383.489,732.735 C 383.489,731.657 383.585,730.6 383.769,729.573 L 383.769,729.573 C 388.72,742.069 404.233,746.003 411.67,747.211 L 411.67,747.211 C 408.751,749.307 405.167,750.544 401.297,750.544 L 401.297,750.544 C 391.462,750.544 383.489,742.573 383.489,732.735 M 415.304,743.731 C 409.962,743.071 396.977,739.244 394.512,731.928 L 394.512,731.928 C 392.782,726.794 397.063,725.162 404.384,727.213 L 404.384,727.213 C 407.331,728.037 410.304,729.229 412.646,730.591 L 412.646,730.591 L 412.646,724.615 C 412.465,724.456 408.663,721.797 402.314,720.122 L 402.314,720.122 C 397.917,718.961 393.439,718.556 389.871,719.078 L 389.871,719.078 C 392.962,716.493 396.949,714.929 401.297,714.929 L 401.297,714.929 C 411.133,714.929 419.102,722.899 419.102,732.735 L 419.102,732.735 C 419.102,736.886 417.688,740.704 415.307,743.731 L 415.307,743.731 L 415.304,743.731 z"
                   id="path235"
                   style="fill:url(#radialGradient3132);stroke:none" /></g></g></g></g></g></g></g></svg>